# xmcd
#
# Track frame offsets:
#	150
#	5134
#	23704
#	36400
#	54717
#	76481
#	96970
#	110789
#	130977
#	147266
#	164550
#	184428
#	211998
#	233988
#	253895
#	276126
#
# Disc length: 3811 seconds
#
# Revision: 1
# Processed by: cddbd v1.5.1PL0 Copyright (c) Steve Scherf et al.
# Submitted via: audiograbber 1.83.01
#
DISCID=f70ee110
DTITLE=Illstar - Quantum Satis
DYEAR=2004
DGENRE=Hip-Hop
TTITLE0=Mosquitos
TTITLE1=Cuentos Satis
TTITLE2=Quantum Cheese and Co
TTITLE3=Portal Immortal
TTITLE4=Balkong-Blues
TTITLE5=My *****
TTITLE6=Day and Night
TTITLE7=Cien Años
TTITLE8=The Illstar Vibe
TTITLE9=The Return
TTITLE10=Word Of Choise
TTITLE11=Cariño Malo
TTITLE12=Whow
TTITLE13=Primos (Flow)
TTITLE14=Pass It On
TTITLE15=That's It
EXTD=
EXTT0=
EXTT1=
EXTT2=
EXTT3=
EXTT4=
EXTT5=
EXTT6=
EXTT7=
EXTT8=
EXTT9=
EXTT10=
EXTT11=
EXTT12=
EXTT13=
EXTT14=
EXTT15=
PLAYORDER=
